<?xml version="1.0" encoding="utf-8"?>
<!-- Generator: Adobe Illustrator 18.1.0, SVG Export Plug-In . SVG Version: 6.00 Build 0)  -->
<!DOCTYPE svg PUBLIC "-//W3C//DTD SVG 1.1//EN" "http://www.w3.org/Graphics/SVG/1.1/DTD/svg11.dtd">
<svg version="1.1" id="Layer_1" xmlns="http://www.w3.org/2000/svg" xmlns:xlink="http://www.w3.org/1999/xlink" x="0px" y="0px"
	 viewBox="0 0 852.3 121.1" enable-background="new 0 0 852.3 121.1" xml:space="preserve">
<path fill="#A9BA04" d="M0,79.6l78.5-39.3v12.5L24.8,79.5l53.6,27v12.4L0,79.6z"/>
<path fill="#A9BA04" d="M147.1,100.7c-4.1,6.7-9,11.8-14.8,15.3c-5.8,3.4-11.1,5.1-15.9,5.1c-6.8,0-12.8-2.9-18.2-8.7
	c-5.4-5.8-8.1-14.7-8.1-26.5c0-9.3,1.8-17.7,5.4-25c3.6-7.3,8.3-13.1,14.3-17.4c6-4.3,13.4-6.4,22.2-6.4c2.6,0,6.4,0.3,11.6,0.8
	c0.8,0.1,1.9,0.2,3.5,0.4V2.2h13.4v116.6h-13.4V100.7z M147.1,84.7V50.1c-4.8-1.3-9.2-1.9-13.3-1.9c-8.3,0-15.2,3.2-20.7,9.6
	c-5.5,6.4-8.3,15.1-8.3,26.2c0,8,1.5,14,4.5,18.1c3,4.1,6.5,6.1,10.3,6.1c4.2,0,8.8-2.1,13.9-6.4C138.5,97.6,143,91.9,147.1,84.7z"
	/>
<path fill="#A9BA04" d="M202.7,118.8V49.3h-22.4V38.1h35.8v69.5h22.5v11.2H202.7z M200.5,9c0-3,1-5.3,3.1-6.8c2.1-1.5,4-2.2,5.8-2.2
	c1.9,0,3.8,0.7,5.9,2.2c2.1,1.5,3.1,3.7,3.1,6.8c0,3-1,5.2-3.1,6.7c-2.1,1.5-4,2.2-5.9,2.2c-1.8,0-3.8-0.7-5.8-2.2
	C201.6,14.2,200.5,12,200.5,9z"/>
<path fill="#A9BA04" d="M293.4,118.8l-35.1-80.7h14.7l27.7,63.9l28.2-63.9h13.5l-35.3,80.7H293.4z"/>
<path fill="#A9BA04" d="M426.5,79.6l-78.5,39.3v-12.5l53.6-26.7l-53.6-27V40.3L426.5,79.6z"/>
<path fill="#FFFFFF" d="M463.8,118.8V49.3h-22.4V38.1h35.8v69.5h22.5v11.2H463.8z M461.6,9c0-3,1-5.3,3.1-6.8c2.1-1.5,4-2.2,5.8-2.2
	c1.9,0,3.8,0.7,5.9,2.2c2.1,1.5,3.1,3.7,3.1,6.8c0,3-1,5.2-3.1,6.7c-2.1,1.5-4,2.2-5.9,2.2c-1.8,0-3.8-0.7-5.8-2.2
	C462.6,14.2,461.6,12,461.6,9z"/>
<path fill="#FFFFFF" d="M528.1,114.6v-14.2c5.4,3.5,11.1,6,17.1,7.4c6,1.4,11.1,2.1,15.3,2.1c6.8,0,11.7-1.1,14.7-3.3
	c3-2.2,4.5-4.9,4.5-8.2c0-2.2-0.7-4-2.1-5.6c-1.4-1.5-4.9-3.4-10.4-5.7l-4.6-1.9l-9.3-3.7c-10-3.9-16.3-7.5-18.9-10.8
	c-2.6-3.3-4-7.3-4-12c0-6.6,2.6-12.1,7.7-16.4s13.5-6.4,25-6.4c8.6,0,16.8,1.3,24.5,3.8v12.2c-8.9-3.2-17.2-4.8-25-4.8
	c-5.7,0-10.1,1-13.4,3c-3.2,2-4.8,4.5-4.8,7.5c0,2.9,1.4,5.2,4.2,6.9c2.7,1.7,7.2,3.7,13.5,6l9.1,3.3c8.3,3,14.2,6.3,17.6,9.9
	s5,8,5,13.4c0,7-2.7,12.7-8.1,17.2c-5.4,4.5-14,6.8-25.8,6.8C549.6,121.1,539,118.9,528.1,114.6z"/>
<path fill="#FFFFFF" d="M635.7,118.8V49.3h-22.4V38.1h35.8v69.5h22.5v11.2H635.7z M633.6,9c0-3,1-5.3,3.1-6.8c2.1-1.5,4-2.2,5.8-2.2
	c1.9,0,3.8,0.7,5.9,2.2c2.1,1.5,3.1,3.7,3.1,6.8c0,3-1,5.2-3.1,6.7c-2.1,1.5-4,2.2-5.9,2.2c-1.8,0-3.8-0.7-5.8-2.2
	C634.6,14.2,633.6,12,633.6,9z"/>
<path fill="#FFFFFF" d="M732.3,121.1c-11.5,0-20.8-4-27.7-12.1c-6.9-8.1-10.4-18.2-10.4-30.5S697.6,56,704.6,48
	c6.9-8,16.2-12.1,27.7-12.1c11.5,0,20.7,4,27.6,12.1c6.9,8,10.4,18.2,10.4,30.5s-3.5,22.5-10.4,30.5
	C753,117.1,743.8,121.1,732.3,121.1z M732.3,109.9c7.2,0,12.9-2.8,17.1-8.4c4.2-5.6,6.3-13.3,6.3-23c0-9.7-2.1-17.4-6.3-23
	s-9.9-8.4-17.1-8.4c-7.2,0-12.9,2.8-17.2,8.4c-4.2,5.6-6.3,13.2-6.3,23c0,9.8,2.1,17.5,6.3,23C719.4,107.1,725.1,109.9,732.3,109.9z
	"/>
<path fill="#FFFFFF" d="M785.1,118.8V38.1h13.4v17.6c3.9-6.2,8.5-11.1,13.9-14.6c5.4-3.5,10.9-5.3,16.3-5.3c4.8,0,9.1,1.3,13,3.8
	c3.9,2.5,6.6,5.8,8.2,9.9s2.3,12.1,2.3,24.1v45.1h-13.4V72.1c0-7.8-0.4-12.9-1.1-15.4c-0.7-2.5-2.1-4.5-4.1-6.1
	c-2-1.6-4.2-2.4-6.5-2.4c-4.7,0-9.8,2.2-15.2,6.7c-5.4,4.5-9.9,10.1-13.4,16.8v47H785.1z"/>
</svg>
